<mxfile host="app.diagrams.net" modified="2021-10-04T14:33:35.786Z" agent="5.0 (Windows NT 10.0; Win64; x64) AppleWebKit/537.36 (KHTML, like Gecko) Chrome/94.0.4606.61 Safari/537.36" etag="oVwA2lBjad1eAQ9MgQcD" version="15.4.0" type="github">
  <diagram id="prtHgNgQTEPvFCAcTncT" name="Page-1">
    <mxGraphModel dx="1422" dy="794" grid="1" gridSize="10" guides="1" tooltips="1" connect="1" arrows="1" fold="1" page="1" pageScale="1" pageWidth="827" pageHeight="1169" math="0" shadow="0">
      <root>
        <mxCell id="0" />
        <mxCell id="1" parent="0" />
        <mxCell id="JaFAgKHxFCLrL1dZAs9Y-1" value="&lt;font style=&quot;font-size: 15px&quot;&gt;&lt;b&gt;SOLICITUD&lt;/b&gt;&lt;/font&gt;" style="rounded=1;whiteSpace=wrap;html=1;strokeWidth=1;fillWeight=4;hachureGap=8;hachureAngle=45;fillColor=#009900;sketch=1;pointerEvents=0;gradientColor=#ffffff;" parent="1" vertex="1">
          <mxGeometry x="10" y="60" width="220" height="60" as="geometry" />
        </mxCell>
        <mxCell id="JaFAgKHxFCLrL1dZAs9Y-6" value="&lt;font style=&quot;font-size: 15px&quot;&gt;&lt;b&gt;TRAMITACION&lt;/b&gt;&lt;/font&gt;" style="rounded=1;whiteSpace=wrap;html=1;strokeWidth=1;fillWeight=4;hachureGap=8;hachureAngle=45;fillColor=#6600CC;sketch=1;pointerEvents=0;gradientColor=#ffffff;" parent="1" vertex="1">
          <mxGeometry x="280" y="61" width="220" height="60" as="geometry" />
        </mxCell>
        <mxCell id="JaFAgKHxFCLrL1dZAs9Y-7" value="&lt;font style=&quot;font-size: 15px&quot;&gt;&lt;b&gt;GESTIÓN ECONÓMICA&lt;/b&gt;&lt;/font&gt;" style="rounded=1;whiteSpace=wrap;html=1;strokeWidth=1;fillWeight=4;hachureGap=8;hachureAngle=45;fillColor=#0000FF;sketch=1;pointerEvents=0;gradientColor=#ffffff;" parent="1" vertex="1">
          <mxGeometry x="560" y="61" width="220" height="60" as="geometry" />
        </mxCell>
        <mxCell id="JaFAgKHxFCLrL1dZAs9Y-8" value="&lt;font style=&quot;font-size: 15px&quot;&gt;&lt;b&gt;SEGUIMIENTO&lt;/b&gt;&lt;/font&gt;" style="rounded=1;whiteSpace=wrap;html=1;strokeWidth=1;fillWeight=4;hachureGap=8;hachureAngle=45;fillColor=#CC6600;sketch=1;pointerEvents=0;gradientColor=#ffffff;" parent="1" vertex="1">
          <mxGeometry x="840" y="61" width="220" height="60" as="geometry" />
        </mxCell>
        <mxCell id="JaFAgKHxFCLrL1dZAs9Y-9" value="&lt;font style=&quot;font-size: 15px&quot;&gt;&lt;b&gt;JUSTIFICACION&lt;/b&gt;&lt;/font&gt;" style="rounded=1;whiteSpace=wrap;html=1;strokeWidth=1;fillWeight=4;hachureGap=8;hachureAngle=45;fillColor=#CC0000;sketch=1;pointerEvents=0;gradientColor=#ffffff;" parent="1" vertex="1">
          <mxGeometry x="1120" y="60" width="220" height="60" as="geometry" />
        </mxCell>
        <mxCell id="JaFAgKHxFCLrL1dZAs9Y-12" value="" style="shape=singleArrow;whiteSpace=wrap;html=1;hachureGap=4;pointerEvents=0;strokeWidth=1;fillColor=#FFFF33;gradientColor=#ffffff;" parent="1" vertex="1">
          <mxGeometry x="230" y="69" width="50" height="40" as="geometry" />
        </mxCell>
        <mxCell id="JaFAgKHxFCLrL1dZAs9Y-14" value="" style="shape=singleArrow;whiteSpace=wrap;html=1;hachureGap=4;pointerEvents=0;strokeWidth=1;fillColor=#FFFF33;gradientColor=#ffffff;" parent="1" vertex="1">
          <mxGeometry x="500" y="70" width="60" height="40" as="geometry" />
        </mxCell>
        <mxCell id="JaFAgKHxFCLrL1dZAs9Y-15" value="" style="shape=singleArrow;whiteSpace=wrap;html=1;hachureGap=4;pointerEvents=0;strokeWidth=1;fillColor=#FFFF33;gradientColor=#ffffff;" parent="1" vertex="1">
          <mxGeometry x="780" y="71" width="60" height="40" as="geometry" />
        </mxCell>
        <mxCell id="JaFAgKHxFCLrL1dZAs9Y-16" value="" style="shape=singleArrow;whiteSpace=wrap;html=1;hachureGap=4;pointerEvents=0;strokeWidth=1;fillColor=#FFFF33;gradientColor=#ffffff;" parent="1" vertex="1">
          <mxGeometry x="1060" y="69" width="60" height="40" as="geometry" />
        </mxCell>
        <mxCell id="JaFAgKHxFCLrL1dZAs9Y-20" value="SUT" style="swimlane;fontStyle=1;childLayout=stackLayout;horizontal=1;startSize=26;fillColor=#6600CC;horizontalStack=0;resizeParent=1;resizeParentMax=0;resizeLast=0;collapsible=1;marginBottom=0;hachureGap=4;pointerEvents=0;strokeWidth=1;strokeColor=default;sketch=0;rounded=1;glass=0;gradientColor=#ffffff;fontSize=13;swimlaneFillColor=none;shadow=1;swimlaneLine=1;" parent="1" vertex="1">
          <mxGeometry x="280" y="140" width="220" height="120" as="geometry" />
        </mxCell>
        <mxCell id="JaFAgKHxFCLrL1dZAs9Y-21" value="&lt;font style=&quot;font-size: 11px&quot;&gt;Sistema unificado de tramitación de expedientes, con configuraciones específicas para cada uno de los procedimientos. Integrado con FACILITA&lt;/font&gt;" style="text;strokeColor=none;fillColor=none;align=left;verticalAlign=top;spacingLeft=4;spacingRight=4;overflow=hidden;rotatable=0;points=[[0,0.5],[1,0.5]];portConstraint=eastwest;whiteSpace=wrap;html=1;" parent="JaFAgKHxFCLrL1dZAs9Y-20" vertex="1">
          <mxGeometry y="26" width="220" height="94" as="geometry" />
        </mxCell>
        <mxCell id="tnVjB69Hr4ZlfYrNc9VV-7" value="EVALUA" style="swimlane;hachureGap=4;pointerEvents=0;rounded=1;shadow=1;glass=0;sketch=0;fontSize=13;strokeColor=default;strokeWidth=1;fillColor=#6600CC;gradientColor=#ffffff;html=1;" vertex="1" parent="1">
          <mxGeometry x="280" y="520" width="220" height="300" as="geometry" />
        </mxCell>
        <mxCell id="tnVjB69Hr4ZlfYrNc9VV-8" value="SUVIDI" style="swimlane;fontStyle=1;childLayout=stackLayout;horizontal=1;startSize=26;fillColor=#6600CC;horizontalStack=0;resizeParent=1;resizeParentMax=0;resizeLast=0;collapsible=1;marginBottom=0;hachureGap=4;pointerEvents=0;strokeWidth=1;strokeColor=default;sketch=0;rounded=1;glass=0;gradientColor=#ffffff;fontSize=13;swimlaneFillColor=none;shadow=1;swimlaneLine=1;" vertex="1" parent="tnVjB69Hr4ZlfYrNc9VV-7">
          <mxGeometry x="10" y="50" width="200" height="90" as="geometry" />
        </mxCell>
        <mxCell id="tnVjB69Hr4ZlfYrNc9VV-9" value="&lt;font style=&quot;font-size: 11px&quot;&gt;Sistema Unificado de Evaluación de Investigación, Desarrollo e Innovación.&lt;br&gt;Proceso de concesión de ayudas y subvenciones I+D+i&lt;br&gt;&lt;/font&gt;" style="text;strokeColor=none;fillColor=none;align=left;verticalAlign=top;spacingLeft=4;spacingRight=4;overflow=hidden;rotatable=0;points=[[0,0.5],[1,0.5]];portConstraint=eastwest;whiteSpace=wrap;html=1;" vertex="1" parent="tnVjB69Hr4ZlfYrNc9VV-8">
          <mxGeometry y="26" width="200" height="64" as="geometry" />
        </mxCell>
        <mxCell id="tnVjB69Hr4ZlfYrNc9VV-10" value="ANEP" style="swimlane;fontStyle=1;childLayout=stackLayout;horizontal=1;startSize=26;fillColor=#6600CC;horizontalStack=0;resizeParent=1;resizeParentMax=0;resizeLast=0;collapsible=1;marginBottom=0;hachureGap=4;pointerEvents=0;strokeWidth=1;strokeColor=default;sketch=0;rounded=1;glass=0;gradientColor=#ffffff;fontSize=13;swimlaneFillColor=none;shadow=1;swimlaneLine=1;" vertex="1" parent="tnVjB69Hr4ZlfYrNc9VV-7">
          <mxGeometry x="10" y="170" width="200" height="120" as="geometry" />
        </mxCell>
        <mxCell id="tnVjB69Hr4ZlfYrNc9VV-11" value="&lt;font style=&quot;font-size: 11px&quot;&gt;Aplicación para la Evaluación de Proyectos de la Agencia Nacional de Evaluación y Prospectiva (ANEP).&lt;br&gt;Cubre el proceso completo de evaluación científica.&lt;br&gt;&lt;/font&gt;" style="text;strokeColor=none;fillColor=none;align=left;verticalAlign=top;spacingLeft=4;spacingRight=4;overflow=hidden;rotatable=0;points=[[0,0.5],[1,0.5]];portConstraint=eastwest;whiteSpace=wrap;html=1;" vertex="1" parent="tnVjB69Hr4ZlfYrNc9VV-10">
          <mxGeometry y="26" width="200" height="94" as="geometry" />
        </mxCell>
        <mxCell id="tnVjB69Hr4ZlfYrNc9VV-12" value="SUT-MODULO" style="swimlane;fontStyle=1;childLayout=stackLayout;horizontal=1;startSize=26;fillColor=#6600CC;horizontalStack=0;resizeParent=1;resizeParentMax=0;resizeLast=0;collapsible=1;marginBottom=0;hachureGap=4;pointerEvents=0;strokeWidth=1;strokeColor=default;sketch=0;rounded=1;glass=0;gradientColor=#ffffff;fontSize=13;swimlaneFillColor=none;shadow=1;swimlaneLine=1;" vertex="1" parent="1">
          <mxGeometry x="280" y="270" width="220" height="80" as="geometry" />
        </mxCell>
        <mxCell id="tnVjB69Hr4ZlfYrNc9VV-13" value="&lt;font style=&quot;font-size: 11px&quot;&gt;Tramitación de Expedientes de las convocatorios RR.HH Integrado con FACILITA&lt;/font&gt;" style="text;strokeColor=none;fillColor=none;align=left;verticalAlign=top;spacingLeft=4;spacingRight=4;overflow=hidden;rotatable=0;points=[[0,0.5],[1,0.5]];portConstraint=eastwest;whiteSpace=wrap;html=1;" vertex="1" parent="tnVjB69Hr4ZlfYrNc9VV-12">
          <mxGeometry y="26" width="220" height="54" as="geometry" />
        </mxCell>
        <mxCell id="tnVjB69Hr4ZlfYrNc9VV-15" value="SUT-PROYECTOS" style="swimlane;fontStyle=1;childLayout=stackLayout;horizontal=1;startSize=26;fillColor=#6600CC;horizontalStack=0;resizeParent=1;resizeParentMax=0;resizeLast=0;collapsible=1;marginBottom=0;hachureGap=4;pointerEvents=0;strokeWidth=1;strokeColor=default;sketch=0;rounded=1;glass=0;gradientColor=#ffffff;fontSize=13;swimlaneFillColor=none;shadow=1;swimlaneLine=1;" vertex="1" parent="1">
          <mxGeometry x="280" y="370" width="220" height="80" as="geometry" />
        </mxCell>
        <mxCell id="tnVjB69Hr4ZlfYrNc9VV-16" value="&lt;font style=&quot;font-size: 11px&quot;&gt;Tramitación de Expedientes de convocatorias correspondientes a proyectos I+D+i. Integrado con FACILITA&lt;/font&gt;" style="text;strokeColor=none;fillColor=none;align=left;verticalAlign=top;spacingLeft=4;spacingRight=4;overflow=hidden;rotatable=0;points=[[0,0.5],[1,0.5]];portConstraint=eastwest;whiteSpace=wrap;html=1;" vertex="1" parent="tnVjB69Hr4ZlfYrNc9VV-15">
          <mxGeometry y="26" width="220" height="54" as="geometry" />
        </mxCell>
        <mxCell id="tnVjB69Hr4ZlfYrNc9VV-17" value="GESTIECO" style="swimlane;fontStyle=1;childLayout=stackLayout;horizontal=1;startSize=26;fillColor=#0000FF;horizontalStack=0;resizeParent=1;resizeParentMax=0;resizeLast=0;collapsible=1;marginBottom=0;hachureGap=4;pointerEvents=0;strokeWidth=1;strokeColor=default;sketch=0;rounded=1;glass=0;gradientColor=#ffffff;fontSize=13;swimlaneFillColor=none;shadow=1;swimlaneLine=1;" vertex="1" parent="1">
          <mxGeometry x="560" y="400" width="220" height="120" as="geometry" />
        </mxCell>
        <mxCell id="tnVjB69Hr4ZlfYrNc9VV-18" value="&lt;font style=&quot;font-size: 11px&quot;&gt;Sistema de Información que da soporte a los procesos de negocio relacionados con la gestión económica de las ayudas del Plan Nacional de I+D+i.&lt;/font&gt;" style="text;strokeColor=none;fillColor=none;align=left;verticalAlign=top;spacingLeft=4;spacingRight=4;overflow=hidden;rotatable=0;points=[[0,0.5],[1,0.5]];portConstraint=eastwest;whiteSpace=wrap;html=1;" vertex="1" parent="tnVjB69Hr4ZlfYrNc9VV-17">
          <mxGeometry y="26" width="220" height="94" as="geometry" />
        </mxCell>
        <mxCell id="tnVjB69Hr4ZlfYrNc9VV-22" value="COMPRUEB@" style="swimlane;fontStyle=1;childLayout=stackLayout;horizontal=1;startSize=26;fillColor=#CC6600;horizontalStack=0;resizeParent=1;resizeParentMax=0;resizeLast=0;collapsible=1;marginBottom=0;hachureGap=4;pointerEvents=0;strokeWidth=1;strokeColor=default;sketch=0;rounded=1;glass=0;gradientColor=#ffffff;fontSize=13;swimlaneFillColor=none;shadow=1;swimlaneLine=1;" vertex="1" parent="1">
          <mxGeometry x="840" y="280" width="220" height="160" as="geometry" />
        </mxCell>
        <mxCell id="tnVjB69Hr4ZlfYrNc9VV-23" value="&lt;font style=&quot;font-size: 11px&quot;&gt;Seguimiento Científico-Técnico&lt;br&gt;Definición y gestion del plan de pago.&lt;br&gt;Revisión administrativa de la justificación centifica-tecnica.&lt;br&gt;Evaluación de la justificación&lt;br&gt;Generación y gestión jornadas de seguimiento / visitas.&lt;br&gt;Generación de informes e interacción con el ciudadano&lt;br&gt;&lt;br&gt;&lt;/font&gt;" style="text;strokeColor=none;fillColor=none;align=left;verticalAlign=top;spacingLeft=4;spacingRight=4;overflow=hidden;rotatable=0;points=[[0,0.5],[1,0.5]];portConstraint=eastwest;whiteSpace=wrap;html=1;" vertex="1" parent="tnVjB69Hr4ZlfYrNc9VV-22">
          <mxGeometry y="26" width="220" height="134" as="geometry" />
        </mxCell>
        <mxCell id="tnVjB69Hr4ZlfYrNc9VV-24" value="COMPRUEB@ ECO" style="swimlane;fontStyle=1;childLayout=stackLayout;horizontal=1;startSize=26;fillColor=#CC6600;horizontalStack=0;resizeParent=1;resizeParentMax=0;resizeLast=0;collapsible=1;marginBottom=0;hachureGap=4;pointerEvents=0;strokeWidth=1;strokeColor=default;sketch=0;rounded=1;glass=0;gradientColor=#ffffff;fontSize=13;swimlaneFillColor=none;shadow=1;swimlaneLine=1;" vertex="1" parent="1">
          <mxGeometry x="840" y="470" width="220" height="120" as="geometry" />
        </mxCell>
        <mxCell id="tnVjB69Hr4ZlfYrNc9VV-25" value="&lt;font style=&quot;font-size: 11px&quot;&gt;Control y gestión del Seguimiento Cientifico - Técnico flexible e intuitivo, adaptable a las necesidades de las convocatorias y gestores, pero permitiendo auditoria y registrando las acciones realizadas sobre un expediente&lt;br&gt;&lt;/font&gt;" style="text;strokeColor=none;fillColor=none;align=left;verticalAlign=top;spacingLeft=4;spacingRight=4;overflow=hidden;rotatable=0;points=[[0,0.5],[1,0.5]];portConstraint=eastwest;whiteSpace=wrap;html=1;" vertex="1" parent="tnVjB69Hr4ZlfYrNc9VV-24">
          <mxGeometry y="26" width="220" height="94" as="geometry" />
        </mxCell>
        <mxCell id="tnVjB69Hr4ZlfYrNc9VV-26" value="JUSTIWEB" style="swimlane;fontStyle=1;childLayout=stackLayout;horizontal=1;startSize=26;fillColor=#CC0000;horizontalStack=0;resizeParent=1;resizeParentMax=0;resizeLast=0;collapsible=1;marginBottom=0;hachureGap=4;pointerEvents=0;strokeWidth=1;strokeColor=default;sketch=0;rounded=1;glass=0;gradientColor=#ffffff;fontSize=13;swimlaneFillColor=none;shadow=1;swimlaneLine=1;" vertex="1" parent="1">
          <mxGeometry x="1120" y="370" width="220" height="100" as="geometry" />
        </mxCell>
        <mxCell id="tnVjB69Hr4ZlfYrNc9VV-27" value="&lt;font style=&quot;font-size: 11px&quot;&gt;Dentro de la Sede Electrónica.&lt;br&gt;Aplicación que permite a los beneficiarios realizar la justificación telemática de sus expedientes.&lt;br&gt;&lt;/font&gt;" style="text;strokeColor=none;fillColor=none;align=left;verticalAlign=top;spacingLeft=4;spacingRight=4;overflow=hidden;rotatable=0;points=[[0,0.5],[1,0.5]];portConstraint=eastwest;whiteSpace=wrap;html=1;" vertex="1" parent="tnVjB69Hr4ZlfYrNc9VV-26">
          <mxGeometry y="26" width="220" height="74" as="geometry" />
        </mxCell>
        <mxCell id="tnVjB69Hr4ZlfYrNc9VV-28" value="MORSA" style="swimlane;fontStyle=1;childLayout=stackLayout;horizontal=1;startSize=26;fillColor=#009900;horizontalStack=0;resizeParent=1;resizeParentMax=0;resizeLast=0;collapsible=1;marginBottom=0;hachureGap=4;pointerEvents=0;strokeWidth=1;strokeColor=default;sketch=0;rounded=1;glass=0;gradientColor=#ffffff;fontSize=13;swimlaneFillColor=none;shadow=1;swimlaneLine=1;" vertex="1" parent="1">
          <mxGeometry x="10" y="660" width="220" height="120" as="geometry" />
        </mxCell>
        <mxCell id="tnVjB69Hr4ZlfYrNc9VV-29" value="&lt;font style=&quot;font-size: 11px&quot;&gt;Monitor de Solicitudes de Ayuda.&lt;br&gt;Permite al gestor durante el plazo de la convocatoria, consultar estadísticas numéricas, obtener informes de la convocatoria y realizar acciones de administración para solicitudes de ayudas.&lt;br&gt;&lt;/font&gt;" style="text;strokeColor=none;fillColor=none;align=left;verticalAlign=top;spacingLeft=4;spacingRight=4;overflow=hidden;rotatable=0;points=[[0,0.5],[1,0.5]];portConstraint=eastwest;whiteSpace=wrap;html=1;" vertex="1" parent="tnVjB69Hr4ZlfYrNc9VV-28">
          <mxGeometry y="26" width="220" height="94" as="geometry" />
        </mxCell>
        <mxCell id="tnVjB69Hr4ZlfYrNc9VV-33" value="RPY - Registro Pymes" style="swimlane;fontStyle=1;childLayout=stackLayout;horizontal=1;startSize=26;fillColor=#009900;horizontalStack=0;resizeParent=1;resizeParentMax=0;resizeLast=0;collapsible=1;marginBottom=0;hachureGap=4;pointerEvents=0;strokeWidth=1;strokeColor=default;sketch=0;rounded=1;glass=0;gradientColor=#ffffff;fontSize=13;swimlaneFillColor=none;shadow=1;swimlaneLine=1;" vertex="1" parent="1">
          <mxGeometry x="20" y="360" width="200" height="60" as="geometry" />
        </mxCell>
        <mxCell id="tnVjB69Hr4ZlfYrNc9VV-34" value="&lt;font style=&quot;font-size: 11px&quot;&gt;Solicitud de Alta en el Registro de Pequeña y Mediana Empresa Innovadora&lt;br&gt;&lt;/font&gt;" style="text;strokeColor=none;fillColor=none;align=left;verticalAlign=top;spacingLeft=4;spacingRight=4;overflow=hidden;rotatable=0;points=[[0,0.5],[1,0.5]];portConstraint=eastwest;whiteSpace=wrap;html=1;" vertex="1" parent="tnVjB69Hr4ZlfYrNc9VV-33">
          <mxGeometry y="26" width="200" height="34" as="geometry" />
        </mxCell>
        <mxCell id="tnVjB69Hr4ZlfYrNc9VV-38" value="RCT - Centros Tecnológicos" style="swimlane;fontStyle=1;childLayout=stackLayout;horizontal=1;startSize=26;fillColor=#009900;horizontalStack=0;resizeParent=1;resizeParentMax=0;resizeLast=0;collapsible=1;marginBottom=0;hachureGap=4;pointerEvents=0;strokeWidth=1;strokeColor=default;sketch=0;rounded=1;glass=0;gradientColor=#ffffff;fontSize=13;swimlaneFillColor=none;shadow=1;swimlaneLine=1;" vertex="1" parent="1">
          <mxGeometry x="20" y="440" width="200" height="90" as="geometry" />
        </mxCell>
        <mxCell id="tnVjB69Hr4ZlfYrNc9VV-39" value="&lt;font style=&quot;font-size: 11px&quot;&gt;Alta telemática de entidades en el RCT en dos modalidades: CT y CAIT (Centro de Apoyo a la Innovación Tecnológica)&lt;br&gt;&lt;/font&gt;" style="text;strokeColor=none;fillColor=none;align=left;verticalAlign=top;spacingLeft=4;spacingRight=4;overflow=hidden;rotatable=0;points=[[0,0.5],[1,0.5]];portConstraint=eastwest;whiteSpace=wrap;html=1;" vertex="1" parent="tnVjB69Hr4ZlfYrNc9VV-38">
          <mxGeometry y="26" width="200" height="64" as="geometry" />
        </mxCell>
        <mxCell id="tnVjB69Hr4ZlfYrNc9VV-40" value="ROT - Oficina Transferencia" style="swimlane;fontStyle=1;childLayout=stackLayout;horizontal=1;startSize=26;fillColor=#009900;horizontalStack=0;resizeParent=1;resizeParentMax=0;resizeLast=0;collapsible=1;marginBottom=0;hachureGap=4;pointerEvents=0;strokeWidth=1;strokeColor=default;sketch=0;rounded=1;glass=0;gradientColor=#ffffff;fontSize=13;swimlaneFillColor=none;shadow=1;swimlaneLine=1;" vertex="1" parent="1">
          <mxGeometry x="20" y="545" width="200" height="80" as="geometry" />
        </mxCell>
        <mxCell id="tnVjB69Hr4ZlfYrNc9VV-41" value="&lt;font style=&quot;font-size: 11px&quot;&gt;Registro de Oficina de Transferencia de Conocimiento comúnmente referido como OTRIS u OTC.&lt;br&gt;&lt;/font&gt;" style="text;strokeColor=none;fillColor=none;align=left;verticalAlign=top;spacingLeft=4;spacingRight=4;overflow=hidden;rotatable=0;points=[[0,0.5],[1,0.5]];portConstraint=eastwest;whiteSpace=wrap;html=1;" vertex="1" parent="tnVjB69Hr4ZlfYrNc9VV-40">
          <mxGeometry y="26" width="200" height="54" as="geometry" />
        </mxCell>
        <mxCell id="tnVjB69Hr4ZlfYrNc9VV-42" value="IMV /  MODIM" style="swimlane;fontStyle=1;childLayout=stackLayout;horizontal=1;startSize=26;fillColor=#009900;horizontalStack=0;resizeParent=1;resizeParentMax=0;resizeLast=0;collapsible=1;marginBottom=0;hachureGap=4;pointerEvents=0;strokeWidth=1;strokeColor=default;sketch=0;rounded=1;glass=0;gradientColor=#ffffff;fontSize=13;swimlaneFillColor=none;shadow=1;swimlaneLine=1;" vertex="1" parent="1">
          <mxGeometry x="10" y="140" width="220" height="160" as="geometry" />
        </mxCell>
        <mxCell id="tnVjB69Hr4ZlfYrNc9VV-43" value="&lt;font style=&quot;font-size: 11px&quot;&gt;Aplicación de Solicitud de Informes Motivados Vinculantes (IMV) para beneficios fiscales, dispomible en sede electronica.&lt;br&gt;MODIM. Valida la información técnica aportada por las empresas, así como la revisión de la información por parte del personal técnico de la Unidad Gestora del Ministerio.&lt;br&gt;&lt;/font&gt;" style="text;strokeColor=none;fillColor=none;align=left;verticalAlign=top;spacingLeft=4;spacingRight=4;overflow=hidden;rotatable=0;points=[[0,0.5],[1,0.5]];portConstraint=eastwest;whiteSpace=wrap;html=1;" vertex="1" parent="tnVjB69Hr4ZlfYrNc9VV-42">
          <mxGeometry y="26" width="220" height="134" as="geometry" />
        </mxCell>
        <mxCell id="tnVjB69Hr4ZlfYrNc9VV-44" value="REGISTROS" style="swimlane;fontStyle=1;childLayout=stackLayout;horizontal=1;startSize=26;fillColor=#009900;horizontalStack=0;resizeParent=1;resizeParentMax=0;resizeLast=0;collapsible=1;marginBottom=0;hachureGap=4;pointerEvents=0;strokeWidth=1;strokeColor=default;sketch=0;rounded=1;glass=0;gradientColor=#ffffff;fontSize=13;swimlaneFillColor=none;shadow=1;swimlaneLine=1;" vertex="1" parent="1">
          <mxGeometry x="10" y="320" width="220" height="320" as="geometry" />
        </mxCell>
        <mxCell id="tnVjB69Hr4ZlfYrNc9VV-45" value="&lt;font style=&quot;font-size: 11px&quot;&gt;&lt;br&gt;&lt;/font&gt;" style="text;strokeColor=none;fillColor=none;align=left;verticalAlign=top;spacingLeft=4;spacingRight=4;overflow=hidden;rotatable=0;points=[[0,0.5],[1,0.5]];portConstraint=eastwest;whiteSpace=wrap;html=1;" vertex="1" parent="tnVjB69Hr4ZlfYrNc9VV-44">
          <mxGeometry y="26" width="220" height="294" as="geometry" />
        </mxCell>
        <mxCell id="tnVjB69Hr4ZlfYrNc9VV-46" value="GACELA" style="swimlane;fontStyle=1;childLayout=stackLayout;horizontal=1;startSize=26;fillColor=#009900;horizontalStack=0;resizeParent=1;resizeParentMax=0;resizeLast=0;collapsible=1;marginBottom=0;hachureGap=4;pointerEvents=0;strokeWidth=1;strokeColor=default;sketch=0;rounded=1;glass=0;gradientColor=#ffffff;fontSize=13;swimlaneFillColor=none;shadow=1;swimlaneLine=1;" vertex="1" parent="1">
          <mxGeometry x="10" y="800" width="220" height="60" as="geometry" />
        </mxCell>
        <mxCell id="tnVjB69Hr4ZlfYrNc9VV-47" value="&lt;font style=&quot;font-size: 11px&quot;&gt;Sistema para la definición de conceptos y subconceptos de gasto.&lt;br&gt;&lt;/font&gt;" style="text;strokeColor=none;fillColor=none;align=left;verticalAlign=top;spacingLeft=4;spacingRight=4;overflow=hidden;rotatable=0;points=[[0,0.5],[1,0.5]];portConstraint=eastwest;whiteSpace=wrap;html=1;" vertex="1" parent="tnVjB69Hr4ZlfYrNc9VV-46">
          <mxGeometry y="26" width="220" height="34" as="geometry" />
        </mxCell>
      </root>
    </mxGraphModel>
  </diagram>
</mxfile>
